<svg width="1728" height="1300" fill="none" xmlns="http://www.w3.org/2000/svg"><g opacity=".15" clip-path="url(#Wave1__a)" stroke="#000" stroke-miterlimit="10" stroke-linecap="round"><path d="M-613.1-281.83c636.94-141.76 1004.33-72.87 1219.82 12 378.63 149.13 455.37 413.41 774.17 421 283.85 6.75 347.03-199.81 697.04-223 291.89-19.34 614.91 100 767.03 276 255.86 296.02-5.03 713.81-351.38 914-472.28 272.99-1198.27 196.17-1641.18 38-600.05-214.28-662.48-571.41-1059.84-568-446.44 3.84-608.66 456.7-929.86 414-281.32-37.4-513.77-432.21-378.52-760 111.25-269.63 463.02-473.86 902.72-524Z" stroke-width="1.2"/><path d="M-310.21-53.41C116.65-69.98 342.12-3.8 468.25 57.36c221.61 107.48 234.3 246.92 437.13 278.11 180.6 27.77 249.45-70.64 476.48-52.25 189.34 15.34 379.48 103.07 452.53 204.6 122.87 170.77-101.51 358.39-350.57 429.28-339.63 96.67-793.34-4.28-1054.82-121.82C74.76 636.04 84.01 451.15-170.59 418.75c-286.04-36.41-452.14 177.31-651.68 128.27-174.76-42.96-269.05-261.38-137.42-414.54C-851.41 6.5-598.32-65.96-310.22-53.41h.01Z" stroke-width=".69"/><path d="M-578.94-257.6c614.02-127.94 965.7-59.31 1171.23 22.97 361.13 144.58 430.44 395.14 736.46 405.35 272.47 9.09 336.58-185.57 673.09-204.15 280.64-15.5 588.85 100.39 732.02 268.21 240.79 282.26-16.69 674.7-352.62 860.64-458.09 253.55-1154 174.01-1576.71 20.27-572.68-208.28-626.7-546.47-1008.36-547.03-428.79-.63-592.1 425.91-899.85 382.48-269.54-38.02-486.21-413.45-350.88-722.02 111.32-253.81 452.53-443.51 875.62-486.72Z" stroke-width="1.14"/><path d="M-544.78-233.37c591.11-114.11 927.07-45.75 1122.64 33.95 343.63 140.03 405.51 376.86 698.76 389.69 261.1 11.43 326.13-171.33 649.15-185.31 269.38-11.66 562.8 100.78 697 260.42 225.72 268.51-28.35 635.6-353.87 807.29-443.89 234.11-1109.72 151.85-1512.24 2.55C211.34 872.95 165.73 553.7-200.22 549.16c-411.15-5.1-575.54 395.12-869.84 350.97-257.76-38.66-458.64-394.71-323.23-684.05 111.38-238 442.03-413.18 848.51-449.45Z" stroke-width="1.08"/><path d="M-510.62-209.14c568.2-100.28 888.44-32.19 1074.05 44.92C889.57-28.74 944 194.36 1224.48 209.82c249.73 13.76 315.69-157.09 625.2-166.46 258.12-7.82 536.75 101.18 661.99 252.64 210.65 254.75-40.01 596.5-355.12 753.93-429.69 214.67-1065.44 129.7-1447.76-15.18-517.96-196.27-555.16-496.57-905.4-505.09-393.5-9.56-558.99 364.33-839.84 319.45-245.97-39.31-431.08-375.97-295.59-646.08 111.45-222.19 431.54-382.84 821.41-412.18l.01.01Z" stroke-width="1.14"/><path d="M-476.45-184.91c545.29-86.45 849.81-18.63 1025.46 55.89C857.65 1.91 904.65 211.29 1172.36 229.37c238.36 16.1 305.24-142.85 601.26-147.62 246.86-3.98 510.69 101.57 626.97 244.85 195.58 241-51.67 557.4-356.37 700.58-415.49 195.23-1021.17 107.54-1383.29-32.9-490.59-190.27-519.38-471.63-853.92-484.11-375.85-14.03-542.43 333.54-809.83 287.94-234.19-39.94-403.52-357.22-267.94-608.11 111.52-206.38 421.04-352.5 794.31-374.9v-.01Z" stroke-width=".97"/><path d="M-442.29-160.68c522.38-72.62 811.18-5.06 976.87 66.86 291.14 126.38 330.71 322.03 585.64 342.74 226.98 18.44 294.79-128.61 577.31-128.77 235.6-.14 484.64 101.96 591.96 237.06 180.52 227.24-63.33 518.3-357.61 647.22-401.29 175.8-976.89 85.38-1318.82-50.63-463.23-184.27-483.61-446.68-802.44-463.14-358.21-18.49-525.87 302.75-779.82 256.42-222.41-40.58-375.95-338.47-240.3-570.14 111.58-190.56 410.55-322.16 767.2-337.63l.01.01Z" stroke-width="1.14"/><path d="M-408.13-136.45c499.47-58.79 772.55 8.5 928.28 77.84 273.64 121.83 305.77 303.75 547.93 327.08 215.61 20.77 284.35-114.37 553.36-109.92 224.35 3.7 458.58 102.35 556.95 229.27 165.45 213.48-74.99 479.2-358.86 593.87-387.09 156.36-932.62 63.23-1254.34-68.35-435.86-178.26-447.83-421.73-750.96-442.17-340.56-22.96-509.32 271.97-749.81 224.91-210.63-41.21-348.39-319.72-212.66-532.17 111.65-174.75 400.05-291.82 740.1-300.35l.01-.01Z" stroke-width=".86"/><path d="M-373.97-112.22c476.55-44.97 733.92 22.06 879.69 88.81 256.14 117.28 280.84 285.48 510.23 311.43 204.24 23.11 273.9-100.13 529.42-91.08 213.09 7.55 432.53 102.74 521.93 221.49 150.38 199.73-86.65 440.1-360.11 540.51-372.89 136.92-888.34 41.07-1189.87-86.08-408.5-172.26-412.06-396.79-699.47-421.2-322.91-27.43-492.76 241.18-719.8 193.39-198.85-41.85-320.83-300.97-185.01-494.2C-975.24-8.09-697.4-110.63-373.97-112.23v.01Z" stroke-width="1.14"/></g><defs><clipPath id="Wave1__a"><path fill="#fff" transform="translate(-1556 -364)" d="M0 0h4504.4v1663.77H0z"/></clipPath></defs></svg>